<svg width="56" height="55" viewBox="0 0 56 55" fill="none" xmlns="http://www.w3.org/2000/svg">
<g clip-path="url(#clip0_159_52)">
<path d="M4.35684 44.3577V47.6627C4.35684 48.481 5.01572 49.1505 5.84464 49.1505H51.0842C51.9025 49.1505 52.572 48.4916 52.572 47.6627V44.3577H4.35684Z" fill="#D3D9D9"/>
<path d="M47.5259 49.1508H51.0966C51.9149 49.1508 52.5738 48.492 52.5738 47.6737V44.3687H49.0137V47.6737C49.0137 48.4813 48.3548 49.1508 47.5259 49.1508Z" fill="#A8B2B4"/>
<path d="M9.40541 49.1508H5.84533C5.02704 49.1508 4.36816 48.492 4.36816 47.6737V44.3687H7.92824V47.6737C7.92824 48.4813 8.58712 49.1508 9.40541 49.1508Z" fill="#EDEDED"/>
<path d="M52.5727 13.5499V44.3579H4.36816V13.5499C4.36816 12.7316 5.02704 12.0621 5.84533 12.0621H51.0849C51.9032 12.0621 52.5727 12.7316 52.5727 13.5499Z" fill="#D4F0FC"/>
<path d="M35.6444 54.4856H21.2872L23.7101 49.1508H33.232L35.6444 54.4856Z" fill="white"/>
<path d="M26.8039 46.7597C26.8039 47.1423 26.4957 47.4399 26.1238 47.4399C25.7518 47.4399 25.4436 47.1317 25.4436 46.7597C25.4436 46.3878 25.7518 46.0796 26.1238 46.0796C26.5063 46.069 26.8039 46.3878 26.8039 46.7597Z" fill="#7C8B8E"/>
<path d="M29.1532 46.76C29.1532 47.1426 28.845 47.4401 28.473 47.4401C28.1011 47.4401 27.7929 47.1319 27.7929 46.76C27.7929 46.388 28.1011 46.0798 28.473 46.0798C28.8556 46.0692 29.1532 46.388 29.1532 46.76Z" fill="#7C8B8E"/>
<path d="M31.5005 46.76C31.5005 47.1426 31.1923 47.4401 30.8204 47.4401C30.4484 47.4401 30.1403 47.1319 30.1403 46.76C30.1403 46.388 30.4484 46.0798 30.8204 46.0798C31.1923 46.0692 31.5005 46.388 31.5005 46.76Z" fill="#7C8B8E"/>
<path d="M48.0807 6.59985H8.85602V44.3686H48.0807V6.59985Z" fill="white"/>
<path d="M48.0788 6.59985H45.3476V44.3686H48.0788V6.59985Z" fill="#EDEDED"/>
<path d="M48.0913 1.988V6.60016H8.85602V1.97738C8.85602 1.39289 9.32361 0.925293 9.9081 0.925293H47.0286C47.6131 0.925293 48.0913 1.39289 48.0913 1.988Z" fill="#FB8A8A"/>
<path d="M12.6605 0.925293C12.076 0.925293 11.6084 1.39289 11.6084 1.97738V6.58954H8.85602V1.97738C8.85602 1.39289 9.32361 0.925293 9.9081 0.925293H12.6605Z" fill="#FCB1B1"/>
<path d="M48.0893 1.988V6.60016H45.3475V1.988C45.3475 1.40351 44.8799 0.925293 44.2954 0.925293H47.0372C47.6111 0.925293 48.0893 1.39289 48.0893 1.988Z" fill="#F96363"/>
<path d="M12.7014 4.18757H12C11.7662 4.18757 11.5749 3.99628 11.5749 3.76249C11.5749 3.52869 11.7662 3.3374 12 3.3374H12.712C12.9458 3.3374 13.1371 3.52869 13.1371 3.76249C13.1371 3.99628 12.9458 4.18757 12.7014 4.18757Z" fill="#333333"/>
<path d="M16.1551 4.18769H15.4431C15.2093 4.18769 15.018 3.9964 15.018 3.76261C15.018 3.52881 15.2093 3.33752 15.4431 3.33752H16.1551C16.3889 3.33752 16.5802 3.52881 16.5802 3.76261C16.5802 3.9964 16.3889 4.18769 16.1551 4.18769Z" fill="#333333"/>
<path d="M19.5985 4.18757H18.8865C18.6527 4.18757 18.4614 3.99628 18.4614 3.76249C18.4614 3.52869 18.6527 3.3374 18.8865 3.3374H19.5985C19.8323 3.3374 20.0236 3.52869 20.0236 3.76249C20.0236 3.99628 19.8323 4.18757 19.5985 4.18757Z" fill="#333333"/>
<path d="M44.9439 4.18769H25.4857C25.2519 4.18769 25.0606 3.9964 25.0606 3.76261C25.0606 3.52881 25.2519 3.33752 25.4857 3.33752H44.9439C45.1777 3.33752 45.369 3.52881 45.369 3.76261C45.369 3.9964 45.1777 4.18769 44.9439 4.18769Z" fill="#333333"/>
<path d="M51.0869 11.6372H48.5046V1.98779C48.5046 1.16951 47.8457 0.5 47.0274 0.5H9.91756C9.09927 0.5 8.44039 1.15888 8.44039 1.97717V11.6372H5.84738C4.7953 11.6372 3.94513 12.4874 3.94513 13.5501V47.6631C3.94513 48.7152 4.80592 49.576 5.85801 49.576H23.0527L21.0123 54.0606H19.7795C19.5457 54.0606 19.3544 54.2519 19.3544 54.4857C19.3544 54.7195 19.5457 54.9108 19.7795 54.9108H37.1442C37.378 54.9108 37.5693 54.7195 37.5693 54.4857C37.5693 54.2519 37.378 54.0606 37.1442 54.0606H35.9114L33.8923 49.576H51.0869C52.139 49.576 52.9998 48.7152 52.9998 47.6631V13.5501C52.9998 12.498 52.139 11.6372 51.0869 11.6372ZM9.27993 1.97717C9.27993 1.62647 9.56687 1.35017 9.90693 1.35017H47.0274C47.3781 1.35017 47.6544 1.6371 47.6544 1.98779V6.17487H9.27993V1.97717ZM9.27993 7.02504H47.6544V43.9436H9.27993V7.02504ZM4.7953 13.5501C4.7953 12.9656 5.26289 12.4874 5.84738 12.4874H8.42977V43.933H4.7953V13.5501ZM34.9869 54.0606H21.9474L23.9772 49.576H32.9571L34.9869 54.0606ZM52.1497 47.6631C52.1497 48.2476 51.6714 48.7258 51.0869 48.7258H5.84738C5.26289 48.7258 4.78467 48.2476 4.78467 47.6631V44.7831H52.1497V47.6631ZM52.1497 43.933H48.5046V12.4874H51.0869C51.6608 12.4874 52.1497 12.9762 52.1497 13.5501V43.933Z" fill="#333333"/>
<path d="M19.1404 22.0839L22.3711 29.8948L17.642 31.8502C17.3019 31.9883 16.9087 31.8289 16.7706 31.4888L14.0394 24.9107C13.9013 24.5706 14.0607 24.1774 14.4007 24.0392L19.1404 22.0839Z" fill="#FB8A8A"/>
<path d="M21.8083 28.524L22.3822 29.8949L17.6531 31.8503C17.313 31.9885 16.9198 31.8291 16.7817 31.489L16.2078 30.1181C16.346 30.4582 16.7392 30.6176 17.0792 30.4794L21.8083 28.524Z" fill="#F96363"/>
<path d="M19.141 22.0945L19.7149 23.4654L14.9858 25.4208C14.6458 25.5589 14.4864 25.9521 14.6245 26.2922L14.0507 24.9213C13.9125 24.5812 14.0719 24.188 14.412 24.0499L19.141 22.0945Z" fill="#FCB1B1"/>
<path d="M12.5417 26.558L14.5502 31.404C14.6884 31.7441 15.0816 31.9035 15.4217 31.7653L16.6863 31.2446L14.1677 25.1659L12.903 25.6866C12.563 25.8354 12.3929 26.218 12.5417 26.558Z" fill="#7AD1F9"/>
<path d="M14.1572 25.1659L14.5929 26.2073L13.3283 26.7281C12.9882 26.8662 12.8288 27.2594 12.967 27.5995L12.5312 26.558C12.3931 26.218 12.5525 25.8248 12.8926 25.6866L14.1572 25.1659Z" fill="#A6E1FB"/>
<path d="M16.2394 30.203L16.6751 31.2445L15.4105 31.7652C15.0704 31.9033 14.6772 31.7439 14.539 31.4039L14.1033 30.3624C14.2415 30.7025 14.6347 30.8619 14.9748 30.7237L16.2394 30.203Z" fill="#4CC3F7"/>
<path d="M31.7767 21.4356C33.9021 26.5791 36.612 30.4687 38.2274 30.8937L22.3717 29.9054L19.1411 22.0945L29.6513 10.1815C28.8011 11.6268 29.6513 16.2921 31.7767 21.4356Z" fill="#7AD1F9"/>
<path d="M38.2268 30.8937L22.3712 29.9054L21.5316 27.8862L35.7188 28.6726C36.6753 29.916 37.5467 30.713 38.2268 30.8937Z" fill="#4CC3F7"/>
<path d="M29.651 10.1815C29.3003 10.7873 29.2366 11.9669 29.4491 13.5184L19.9697 24.103L19.1302 22.0839L29.651 10.1815Z" fill="#A6E1FB"/>
<path d="M37.1121 19.2253C39.5245 25.0489 40.2896 30.2562 38.8125 30.8726C37.3353 31.4783 34.1897 27.2594 31.7773 21.4357C29.365 15.6121 28.5998 10.4048 30.077 9.78842C31.5542 9.17205 34.6998 13.4016 37.1121 19.2253Z" fill="white"/>
<path d="M37.1106 19.2252C39.523 25.0488 40.2775 30.2561 38.811 30.8725C37.9927 31.2126 36.643 30.0436 35.1977 27.9394C35.9098 28.5983 36.5368 28.8746 36.9937 28.6833C38.4603 28.0776 37.7057 22.8597 35.2934 17.036C34.2307 14.4642 33.0192 12.2113 31.8715 10.5428C33.4443 11.9775 35.4528 15.2188 37.1106 19.2252Z" fill="#EDEDED"/>
<path d="M35.815 19.7566C36.5802 21.6057 35.6981 23.7205 33.849 24.4856L33.2964 24.7194C32.7757 23.7098 32.2549 22.594 31.7767 21.425C31.2879 20.256 30.8734 19.1083 30.5227 18.0243L31.0753 17.7905C32.9351 17.0254 35.0499 17.9074 35.815 19.7566Z" fill="#FDDD8D"/>
<path d="M35.8152 19.7567C36.5804 21.6058 35.6983 23.7206 33.8492 24.4858L33.2966 24.7196C33.0415 24.2307 32.7865 23.71 32.5421 23.1786C34.3274 22.3816 35.1669 20.3093 34.4124 18.4814C34.3274 18.2795 34.2318 18.0989 34.1255 17.9182C34.8694 18.3008 35.4751 18.9384 35.8152 19.7567Z" fill="#FDD267"/>
<path d="M23.0832 33.3593C23.4127 34.1563 22.8069 34.4114 23.1363 35.2084C23.4658 36.0161 24.0822 35.761 24.4116 36.558C24.741 37.3657 24.1353 37.6101 24.4647 38.4072C24.7942 39.2148 25.4105 38.9598 25.74 39.7568L22.3499 41.1596C21.9674 41.319 21.521 41.1383 21.3616 40.7557L17.6634 31.8502L21.7548 30.1499C22.0843 30.9576 21.4785 31.202 21.808 32.0096C22.1374 32.8173 22.7538 32.5623 23.0832 33.3593Z" fill="#D3D9D9"/>
<path d="M21.8075 32.02C21.8181 32.0413 21.8181 32.0519 21.8288 32.0732L18.3431 33.5184L17.6523 31.8606L21.7544 30.1603C22.0838 30.9573 21.4781 31.2124 21.8075 32.02Z" fill="#E8EAEA"/>
<path d="M25.7395 39.7674L22.3388 41.1702C21.9562 41.3296 21.5099 41.1489 21.3505 40.7664L20.6597 39.1085C20.8191 39.4911 21.2655 39.6718 21.648 39.5124L24.4323 38.354C24.4323 38.3753 24.443 38.3859 24.4536 38.4071C24.7937 39.2254 25.41 38.9704 25.7395 39.7674Z" fill="#A8B2B4"/>
<path d="M37.504 19.0552C35.2511 13.6248 31.9248 8.55565 29.9163 9.38456C29.5868 9.52271 30.4264 8.63004 18.8853 21.7226L14.2519 23.6461C13.7631 23.848 13.4761 24.3794 13.6143 24.9214L12.7322 25.2827C12.169 25.5165 11.9139 26.1541 12.1371 26.7067L14.1456 31.5527C14.3688 32.1053 15.0064 32.3816 15.5697 32.1478L16.4623 31.7759C16.6643 32.1159 17.015 32.3178 17.3975 32.3178L20.9576 40.9152C21.2127 41.5209 21.9034 41.7972 22.4985 41.5528L25.8886 40.15C25.9949 40.1075 26.0799 40.0225 26.1224 39.9162C26.1649 39.81 26.1649 39.6931 26.1224 39.5868C25.6548 38.4603 24.5177 38.8004 24.8365 37.5889C25.0809 36.6856 24.7834 35.9736 23.9757 35.506C23.4975 35.2297 23.37 34.9109 23.5081 34.3795C23.7419 33.4868 23.455 32.7642 22.6473 32.2966C22.1797 32.0203 22.0416 31.7015 22.1797 31.1701C22.2329 30.9682 22.2966 30.7132 22.2541 30.3837L22.4454 30.3093C38.5455 31.3402 38.4286 31.4677 38.9705 31.2339C40.9791 30.4262 39.757 24.4963 37.504 19.0552ZM15.2509 31.372C15.1233 31.4252 14.9852 31.3614 14.932 31.2445L12.9235 26.3986C12.8704 26.2817 12.9342 26.1329 13.051 26.0797L13.9225 25.7184L16.1117 31.0107L15.2509 31.372ZM17.1744 31.3402L14.4432 24.7513C14.3901 24.6238 14.4538 24.4857 14.5707 24.4325L18.9066 22.6366L21.8184 29.6611L17.4932 31.457H17.4825C17.3657 31.5102 17.2275 31.4571 17.1744 31.3402ZM21.4252 30.7557C21.4146 30.8194 21.3933 30.8938 21.3721 30.9788C21.1383 31.8715 21.4252 32.5835 22.2329 33.0511C22.7005 33.3274 22.8386 33.6462 22.7005 34.1776C22.4667 35.0703 22.7536 35.7929 23.5613 36.2605C24.0395 36.5368 24.167 36.8662 24.0288 37.387C23.795 38.2797 24.082 38.9917 24.8896 39.4593C24.964 39.5018 25.0278 39.5336 25.0809 39.5762L22.1797 40.777C22.0097 40.8514 21.8184 40.7664 21.744 40.5964L18.2158 32.0734C18.3221 32.0415 21.4677 30.7344 21.4252 30.7557ZM22.6686 29.491L19.6398 22.169L28.9067 11.6694C28.8217 14.56 30.267 18.8958 31.3934 21.5951C32.5199 24.3156 34.5603 28.3858 36.6538 30.3731L22.6686 29.491ZM31.0534 18.2688L31.2446 18.1944C32.8706 17.5249 34.7516 18.3007 35.4211 19.9266C36.0906 21.5526 35.3148 23.4336 33.6889 24.1031L33.4976 24.1775C33.03 23.2636 32.5837 22.2859 32.1692 21.2657C31.7547 20.2561 31.3722 19.2465 31.0534 18.2688ZM38.6517 30.4687C37.3871 31.0001 34.5497 26.1541 33.9014 24.932L34.0289 24.8789C36.0906 24.0287 37.0789 21.6482 36.2181 19.5866C35.368 17.5249 32.9875 16.5366 30.9258 17.3974L30.7983 17.4505C30.3945 16.1221 28.9704 10.7023 30.2457 10.171C31.9354 9.46958 35.6443 16.781 36.7176 19.374C39.3212 25.6759 39.5975 30.0862 38.6517 30.4687Z" fill="#333333"/>
<path d="M43.5518 25.644L41.4476 24.8576C41.2244 24.7726 41.1182 24.5282 41.2032 24.305C41.2882 24.0818 41.5326 23.9756 41.7558 24.0606L43.86 24.847C44.0831 24.932 44.1894 25.1764 44.1044 25.3996C44.0088 25.6228 43.7643 25.729 43.5518 25.644Z" fill="#333333"/>
<path d="M42.2135 21.2868C41.9797 21.2868 41.7991 21.1062 41.7884 20.8724C41.7778 20.6386 41.9691 20.4473 42.2029 20.4367L44.4559 20.3835H44.4665C44.7003 20.3835 44.8809 20.5642 44.8916 20.798C44.9022 21.0318 44.7109 21.2231 44.4771 21.2337C44.424 21.2443 42.0648 21.2975 42.2135 21.2868Z" fill="#333333"/>
<path d="M41.0873 17.5778C41.0022 17.3653 41.0979 17.1102 41.321 17.0252L43.3933 16.1644C43.6059 16.0794 43.8609 16.175 43.9459 16.3982C44.031 16.6107 43.9353 16.8658 43.7121 16.9508L41.6399 17.8116C41.4273 17.8966 41.1723 17.7904 41.0873 17.5778Z" fill="#333333"/>
<path d="M39.248 14.7511C39.0886 14.5811 39.0886 14.3154 39.2586 14.1454L40.8846 12.5938C41.0546 12.4344 41.3203 12.4344 41.4903 12.6045C41.6497 12.7745 41.6497 13.0402 41.4797 13.2102L39.8431 14.7618C39.6731 14.9212 39.4074 14.9212 39.248 14.7511Z" fill="#333333"/>
<path d="M36.4008 12.732C36.1882 12.6363 36.0926 12.3813 36.1882 12.1687L37.1128 10.1177C37.2084 9.90516 37.4635 9.80952 37.676 9.90516C37.8886 10.0008 37.9842 10.2559 37.8886 10.4684L36.964 12.5194C36.8684 12.7426 36.6133 12.8276 36.4008 12.732Z" fill="#333333"/>
</g>
<defs>
<clipPath id="clip0_159_52">
<rect width="54.4108" height="54.4108" fill="white" transform="translate(0.956055 0.5)"/>
</clipPath>
</defs>
</svg>
