<svg width="54" height="49" viewBox="0 0 54 49" fill="none" xmlns="http://www.w3.org/2000/svg">
<g clip-path="url(#clip0_159_198)">
<path d="M55.8546 50.3214C60.0807 44.8567 62.3142 38.3151 62.3142 31.3802C62.3142 23.0998 59.0896 15.3151 53.2344 9.4599C47.3794 3.60486 39.5945 0.380249 31.3142 0.380249C23.0339 0.380249 15.249 3.60486 9.39398 9.4599C3.53881 15.3151 0.314331 23.0998 0.314331 31.3802C0.314331 39.6607 3.53881 47.4454 9.39398 53.3006C15.249 59.1558 23.0339 62.3802 31.3142 62.3802C38.1586 62.3802 44.6446 60.1949 50.0746 56.0605L52.3434 58.3293C52.4478 58.4337 52.5893 58.4923 52.7369 58.4923C52.8844 58.4923 53.026 58.4337 53.1303 58.3293L58.1029 53.3566C58.3202 53.1393 58.3202 52.7869 58.1029 52.5696L55.8546 50.3214ZM31.3142 61.2673C14.8345 61.2673 1.42713 47.8601 1.42713 31.3802C1.42713 14.9004 14.8345 1.49318 31.3142 1.49318C47.7939 1.49318 61.2013 14.9004 61.2013 31.3802C61.2013 38.0184 59.079 44.2829 55.0612 49.528L45.9784 40.4452L56.1088 36.0614C56.3234 35.9685 56.4569 35.7516 56.4434 35.5182C56.4298 35.2849 56.2719 35.085 56.048 35.0177L53.4025 34.2231C53.5219 33.2853 53.585 32.3306 53.585 31.3804C53.585 19.1002 43.5944 9.10966 31.3143 9.10966C19.0343 9.10966 9.04348 19.1002 9.04348 31.3802C9.04348 43.6603 19.0342 53.651 31.3142 53.651C32.1968 53.651 33.0828 53.5956 33.9559 53.4925L34.7915 56.2742C34.8588 56.498 35.0587 56.656 35.2919 56.6696C35.5284 56.6831 35.7422 56.5496 35.835 56.3351L40.2189 46.2047L49.2796 55.2655C44.0694 59.1919 37.8625 61.2673 31.3142 61.2673ZM25.9622 26.8815L30.647 42.4776C24.8256 42.1311 20.1951 37.2873 20.1951 31.3804C20.1951 25.2493 25.1831 20.2614 31.3142 20.2614C37.2924 20.2614 42.1816 25.0045 42.4217 30.9247L26.6552 26.1885C26.4592 26.1295 26.2465 26.1831 26.1016 26.3279C25.9568 26.4728 25.9033 26.6854 25.9622 26.8815ZM43.5446 31.2619C43.4807 24.5716 38.0194 19.1484 31.3142 19.1484C24.5695 19.1484 19.0822 24.6356 19.0822 31.3802C19.0822 38.0155 24.3927 43.4335 30.9866 43.6078L33.6309 52.4108C32.8642 52.494 32.0877 52.538 31.3142 52.538C19.6478 52.538 10.1564 43.0467 10.1564 31.3802C10.1564 19.7138 19.6478 10.2225 31.3142 10.2225C42.9806 10.2225 52.472 19.7138 52.472 31.3802C52.472 32.2215 52.4191 33.0661 52.3206 33.8981L43.5446 31.2619ZM52.7369 57.149L40.4268 44.8388C40.3216 44.7335 40.1795 44.6758 40.0334 44.6758C39.9987 44.6758 39.9639 44.6791 39.9292 44.6856C39.7481 44.7202 39.5958 44.8421 39.5228 45.0112L35.4189 54.4946L27.3256 27.5519L54.2683 35.6452L44.7849 39.7491C44.6158 39.8223 44.4937 39.9744 44.4593 40.1555C44.4247 40.3366 44.4821 40.5229 44.6125 40.6533L56.9225 52.9633L52.7369 57.149Z" fill="#F5E9D7"/>
<path d="M31.3142 5.08375C38.3382 5.08375 44.9419 7.8192 49.9087 12.7859C54.8753 17.7527 57.6105 24.3563 57.6105 31.3804C57.6105 31.6877 57.8596 31.9369 58.167 31.9369C58.4743 31.9369 58.7235 31.6877 58.7235 31.3804C58.7235 24.059 55.8725 17.1759 50.6955 11.999C45.5186 6.82188 38.6355 3.97083 31.3142 3.97083C31.0069 3.97083 30.7577 4.21999 30.7577 4.52729C30.7577 4.83459 31.0067 5.08375 31.3142 5.08375Z" fill="#F5E9D7"/>
<path d="M31.3141 57.6767C16.8142 57.6767 5.01771 45.8801 5.01771 31.3802C5.01771 31.0729 4.76868 30.8237 4.46125 30.8237C4.15382 30.8237 3.90479 31.0729 3.90479 31.3802C3.90479 46.4939 16.2005 58.7896 31.3141 58.7896C31.6215 58.7896 31.8706 58.5405 31.8706 58.2332C31.8706 57.9259 31.6215 57.6767 31.3141 57.6767Z" fill="#F5E9D7"/>
<path d="M31.3142 13.1652C21.2704 13.1652 13.0991 21.3364 13.0991 31.3804C13.0991 31.6877 13.3482 31.9368 13.6556 31.9368C13.963 31.9368 14.212 31.6877 14.212 31.3804C14.212 21.9502 21.884 14.2781 31.3142 14.2781C31.6216 14.2781 31.8707 14.0289 31.8707 13.7216C31.8707 13.4142 31.6216 13.1652 31.3142 13.1652Z" fill="#F5E9D7"/>
</g>
<defs>
<clipPath id="clip0_159_198">
<rect width="62" height="62" fill="white" transform="translate(0.314209 0.380249)"/>
</clipPath>
</defs>
</svg>
