<svg width="23" height="22" viewBox="0 0 23 22" fill="none" xmlns="http://www.w3.org/2000/svg">
<g clip-path="url(#clip0_159_239)">
<path d="M11.4413 21.9337C17.3726 21.9337 22.1808 17.1254 22.1808 11.1942C22.1808 5.26294 17.3726 0.454712 11.4413 0.454712C5.51007 0.454712 0.701843 5.26294 0.701843 11.1942C0.701843 17.1254 5.51007 21.9337 11.4413 21.9337Z" fill="#324A5E"/>
<path d="M21.9386 13.4707L14.3466 5.91942L13.1051 5.39722H8.25904L7.15073 6.46634L6.71683 7.87657L5.18604 12.1809L14.4971 21.492C18.2271 20.3869 21.1095 17.3112 21.9386 13.4707Z" fill="#2B3B4E"/>
<path d="M15.2023 13.5807H14.8407V7.97694C14.8407 6.56076 13.6885 5.40857 12.2723 5.40857H9.41764C8.00154 5.40857 6.84935 6.56076 6.84935 7.97694V9.40425H6.48773V7.97694C6.48773 6.36141 7.80214 5.047 9.41768 5.047H12.2724C13.8879 5.047 15.2023 6.36141 15.2023 7.97694V13.5807Z" fill="#CFDBE6"/>
<path d="M12.2717 5.047H10.6937V5.40862H12.2717C13.6879 5.40862 14.84 6.5608 14.84 7.97699V13.5808H15.2017V7.97694C15.2016 6.36141 13.8872 5.047 12.2717 5.047Z" fill="#B8C9D9"/>
<path d="M15.0214 17.1605C13.7034 17.1605 12.6349 16.092 12.6349 14.774V12.3874C12.6349 11.0694 13.7034 10.0009 15.0214 10.0009C16.3395 10.0009 17.408 11.0694 17.408 12.3874V14.774C17.408 16.092 16.3395 17.1605 15.0214 17.1605Z" fill="#E6F3FF"/>
<path d="M15.0216 10.0009C15.0175 10.0009 15.0136 10.0011 15.0096 10.0011V17.1602C15.0137 17.1602 15.0176 17.1605 15.0216 17.1605C16.3396 17.1605 17.4081 16.092 17.4081 14.774V12.3874C17.4081 11.0693 16.3396 10.0009 15.0216 10.0009Z" fill="#CFDBE6"/>
<path d="M15.4191 11.1581H14.6235V12.6045H15.4191V11.1581Z" fill="#31BAFD"/>
<path d="M15.4184 11.1581H15.0086V12.6045H15.4184V11.1581Z" fill="#2B9ED8"/>
<path d="M6.66861 12.7671C7.86684 12.7671 8.83819 11.7958 8.83819 10.5976C8.83819 9.39933 7.86684 8.42798 6.66861 8.42798C5.47038 8.42798 4.49902 9.39933 4.49902 10.5976C4.49902 11.7958 5.47038 12.7671 6.66861 12.7671Z" fill="#F9B54C"/>
<path d="M8.83743 10.5976C8.83743 9.39936 7.8661 8.42798 6.66785 8.42798V12.7671C7.86614 12.7671 8.83743 11.7957 8.83743 10.5976Z" fill="#E09532"/>
<path d="M6.66859 12.0801C7.48738 12.0801 8.15114 11.4163 8.15114 10.5975C8.15114 9.77875 7.48738 9.11499 6.66859 9.11499C5.8498 9.11499 5.18604 9.77875 5.18604 10.5975C5.18604 11.4163 5.8498 12.0801 6.66859 12.0801Z" fill="#FFD15D"/>
<path d="M8.1504 10.5975C8.1504 9.77874 7.48665 9.11499 6.66785 9.11499V12.0801C7.48665 12.0801 8.1504 11.4163 8.1504 10.5975Z" fill="#F9B54C"/>
</g>
<defs>
<clipPath id="clip0_159_239">
<rect width="21.479" height="21.479" fill="white" transform="translate(0.701904 0.454834)"/>
</clipPath>
</defs>
</svg>
