<svg width="63" height="31" viewBox="0 0 63 31" fill="none" xmlns="http://www.w3.org/2000/svg">
<path d="M5.67723 18.0771C3.84013 18.0771 2.05893 17.4853 0.89941 16.8906L0.024231 20.452C1.09796 21.0458 3.24736 21.6106 5.42374 21.6106C10.6536 21.6106 13.1124 18.8973 13.1124 15.7031C13.1124 13.0178 11.5288 11.2656 8.1659 10.0212C5.70615 9.08724 4.63241 8.55134 4.63241 7.33592C4.63241 6.34605 5.53651 5.49786 7.40253 5.49786C9.26855 5.49786 10.6257 6.03569 11.3881 6.40291L12.35 2.92629C11.2184 2.41738 9.63578 1.96533 7.48735 1.96533C2.9929 1.96533 0.278688 4.45208 0.278688 7.70315C0.278688 10.4733 2.3423 12.2256 5.50856 13.3282C7.79771 14.1484 8.70277 14.827 8.70277 16.0125C8.70277 17.2578 7.65602 18.0771 5.67723 18.0771Z" fill="#F5E9D7"/>
<path d="M28.1794 17.7948H20.3501V13.2724H27.3592V9.76683H20.3501V5.80924H27.7843V2.27576H16.0243V21.3282H28.1794V17.7948Z" fill="#F5E9D7"/>
<path d="M42.7479 22.774C45.4225 22.774 47.8736 21.8111 49.7821 20.2169L53.5767 23.7581C53.571 24.1533 53.7146 24.5446 54.0249 24.8347L59.5931 30.0337C59.8717 30.294 60.2244 30.4222 60.5782 30.4222C60.9647 30.4222 61.3512 30.268 61.6355 29.9614C62.1801 29.3793 62.1483 28.4617 61.5661 27.9181L55.9979 22.72C55.6876 22.4299 55.2847 22.3152 54.8934 22.347L51.1488 18.853C52.7594 16.9417 53.7358 14.4762 53.7358 11.7861C53.7358 5.72825 48.8086 0.801025 42.7507 0.801025C36.6929 0.801025 31.7628 5.73017 31.7628 11.787C31.7619 17.8468 36.69 22.774 42.7479 22.774ZM42.7479 3.69355C47.2115 3.69355 50.8423 7.32439 50.8423 11.787C50.8423 16.2497 47.2095 19.8815 42.7479 19.8815C38.2862 19.8815 34.6534 16.2497 34.6534 11.787C34.6534 7.32439 38.2842 3.69355 42.7479 3.69355Z" fill="#F5E9D7"/>
</svg>
