<svg width="23" height="22" viewBox="0 0 23 22" fill="none" xmlns="http://www.w3.org/2000/svg">
<path d="M19.7332 4.03467H3.29552C2.89195 4.03467 2.56479 4.36183 2.56479 4.7654V17.6232C2.56479 18.0268 2.89195 18.354 3.29552 18.354H19.7332C20.1368 18.354 20.4639 18.0268 20.4639 17.6232V4.7654C20.4639 4.36183 20.1368 4.03467 19.7332 4.03467Z" stroke="black" stroke-width="1.78991"/>
<path d="M7.93429 8.93372C7.03933 7.61456 5.47226 8.48177 5.58458 9.83763C5.6969 11.1944 7.48681 11.1944 7.59823 12.5511C7.71055 13.907 6.14438 14.7742 5.24942 13.4546M12.4091 8.50951H10.6192V14.3267H12.4091M10.6192 11.6419H12.4091" stroke="black" stroke-width="1.78991" stroke-linecap="round" stroke-linejoin="round"/>
<path d="M17.7786 9.85183C17.7786 9.11043 17.1776 8.5094 16.4362 8.5094C15.6948 8.5094 15.0938 9.11043 15.0938 9.85183V12.9842C15.0938 13.7256 15.6948 14.3266 16.4362 14.3266C17.1776 14.3266 17.7786 13.7256 17.7786 12.9842V9.85183Z" stroke="black" stroke-width="1.78991" stroke-linecap="round" stroke-linejoin="round"/>
</svg>
