<svg width="54" height="51" viewBox="0 0 54 51" fill="none" xmlns="http://www.w3.org/2000/svg">
<path d="M31.6584 0.380249C14.5369 0.380249 0.658447 14.2587 0.658447 31.3802C0.658447 48.5018 14.5369 62.3802 31.6584 62.3802C48.78 62.3802 62.6584 48.5018 62.6584 31.3802C62.6584 14.2587 48.78 0.380249 31.6584 0.380249ZM31.6584 57.5365C17.2123 57.5365 5.5022 45.8264 5.5022 31.3802C5.5022 16.9341 17.2123 5.224 31.6584 5.224C46.1046 5.224 57.8147 16.9341 57.8147 31.3802C57.8147 45.8264 46.1046 57.5365 31.6584 57.5365Z" fill="#F5E9D7"/>
<path d="M38.9052 24.4003C38.926 24.266 38.9355 24.141 38.9355 24.0256C38.9355 22.9604 38.2694 22.4306 36.9374 22.4306C36.2979 22.4306 35.8665 22.5403 35.6432 22.7561C35.4161 22.9755 35.261 23.4089 35.1702 24.0578C34.6593 23.3388 34.1446 22.8544 33.6262 22.6028C33.1494 22.3738 32.4664 22.2603 31.5828 22.2603C29.3066 22.2603 27.3313 23.4182 25.6643 25.7323C24.1279 27.8609 23.3616 30.1352 23.3616 32.5533C23.3616 34.4416 23.8592 36.099 24.8564 37.5295C25.9613 39.1057 27.4068 39.8928 29.1874 39.8928C30.7125 39.8928 32.177 39.3459 33.579 38.2523C34.211 39.3459 35.2914 39.8928 36.8163 39.8928C39.7037 39.8928 42.1766 38.6743 44.2296 36.2354C46.1822 33.9157 47.1584 31.2478 47.1584 28.2356C47.1584 24.633 45.6428 21.6284 42.6117 19.2235C39.8039 16.9966 36.593 15.8802 32.9716 15.8802C28.2603 15.8802 24.3059 17.3693 21.1025 20.3493C17.8064 23.4221 16.1584 27.3425 16.1584 32.1143C16.1584 36.9903 17.8481 40.7347 21.2236 43.3495C24.2547 45.7053 28.23 46.8802 33.1532 46.8802C35.2496 46.8802 37.2932 46.5529 39.2874 45.8944C41.4745 45.1773 43.274 44.1556 44.6874 42.8311C45.1434 42.3941 45.5824 41.8624 45.9986 41.238C46.519 40.4755 46.7763 39.8606 46.7763 39.3933C46.7763 39.0394 46.6532 38.7235 46.4035 38.4453C46.1557 38.1691 45.8567 38.031 45.5124 38.031C44.8596 38.031 44.3109 38.2618 43.8625 38.7178C43.1228 39.5124 42.5721 40.1179 42.2164 40.5342C39.7945 42.6496 36.786 43.7072 33.1835 43.7072C29.3199 43.7072 26.2281 42.7593 23.9104 40.8635C21.3769 38.7917 20.1111 35.8229 20.1111 31.9593C20.1111 28.2092 21.3145 25.0759 23.7268 22.5594C26.1373 20.0448 29.1741 18.7865 32.8334 18.7865C35.7132 18.7865 38.1067 19.6039 40.0177 21.2424C42.0649 22.9794 43.0847 25.2915 43.0847 28.175C43.0847 29.6849 42.8274 31.0927 42.3071 32.3925C41.7281 33.8513 40.888 34.9752 39.7906 35.766C38.9657 36.3583 38.3204 36.6553 37.8531 36.6553C37.3442 36.6553 37.0906 36.4169 37.0906 35.9382C37.0906 35.7395 37.2211 34.8238 37.4879 33.1871L38.9052 24.4003ZM33.0321 33.0245C32.0956 35.6223 31.0984 36.9222 30.0426 36.9222C28.4646 36.9222 27.6756 35.9157 27.6756 33.9006C27.6756 32.3358 28.1277 30.5742 29.0359 28.6102C30.0936 26.2924 31.297 25.1345 32.6498 25.1345C33.2099 25.1345 33.6261 25.4372 33.9005 26.0407C34.1238 26.5024 34.2354 27.0511 34.2354 27.6869C34.2354 29.0454 33.8362 30.8239 33.0321 33.0245Z" fill="#F5E9D7"/>
</svg>
