<svg width="22" height="22" viewBox="0 0 22 22" fill="none" xmlns="http://www.w3.org/2000/svg">
<g clip-path="url(#clip0_159_230)">
<path d="M20.4992 10.2551C18.0416 7.82033 15.584 5.38663 13.1285 2.95155C12.7699 2.60165 12.4321 2.20325 11.9575 2.00301C11.4878 1.78164 10.9414 1.74977 10.4363 1.85647C9.99393 1.95728 9.59415 2.19701 9.27474 2.51331C6.51192 5.25048 3.74877 7.98835 0.984569 10.7245C0.666196 11.0387 0.418149 11.4323 0.316644 11.8691C0.0893832 12.6552 0.374152 13.5365 0.956161 14.1033C2.90416 16.0332 4.85389 17.9611 6.80154 19.8925C7.23597 20.3321 7.84951 20.5885 8.47205 20.5805C10.066 20.5899 11.6582 20.5792 13.2511 20.5857C13.9675 20.6315 14.693 20.3772 15.2005 19.8686C16.9652 18.1254 18.7251 16.3759 20.4898 14.6316C20.7774 14.3426 21.0888 14.0728 21.323 13.7374C21.7523 13.1239 21.824 12.2976 21.5731 11.603C21.3771 11.0449 20.9059 10.6601 20.4992 10.2551ZM6.70316 13.3633C6.4028 13.717 5.87483 13.6234 5.46916 13.5607C5.11164 13.2774 4.78357 12.9476 4.49499 12.5963C4.32835 12.4012 4.54245 12.1989 4.67513 12.0614C6.49252 10.2686 8.30368 8.46816 10.1176 6.67329C10.3608 6.43771 10.5825 6.17616 10.8562 5.97522C11.0921 5.85778 11.2737 6.11068 11.4303 6.24475C11.7646 6.59707 12.1422 6.90956 12.4481 7.28648C12.6054 7.47355 12.4325 7.69007 12.2943 7.82414C10.4287 9.66856 8.56178 11.513 6.70316 13.3633ZM12.4224 17.6106C12.1325 17.9338 11.8293 18.2504 11.4898 18.5206C11.1774 18.5951 10.8444 18.5778 10.5281 18.5331C10.2247 18.3803 10.0189 18.0879 9.77014 17.8624C9.59242 17.6916 9.31562 17.4346 9.54322 17.1883C9.9288 16.7635 10.3407 16.3596 10.7672 15.974C10.9255 15.841 11.1628 15.9071 11.291 16.0506C11.6554 16.4001 12.0143 16.7549 12.366 17.1176C12.5032 17.2395 12.5797 17.4706 12.4224 17.6106ZM12.3137 12.773C11.2789 13.7963 10.2402 14.8186 9.21099 15.8493C8.92241 16.2006 8.41281 16.0894 8.01787 16.0568C7.63541 15.814 7.33921 15.454 7.03192 15.1256C6.82753 14.934 7.01945 14.6828 7.17638 14.5384C8.21326 13.5161 9.24841 12.4934 10.279 11.4655C10.4665 11.2847 10.6366 11.0758 10.8642 10.9379C11.0925 10.8409 11.2595 11.0709 11.4102 11.2001C11.7549 11.5656 12.1474 11.8875 12.4616 12.2786C12.6005 12.4532 12.4398 12.6489 12.3137 12.773Z" fill="#84BF31"/>
<path d="M20.4992 10.2551C18.0416 7.82033 15.584 5.38663 13.1285 2.95155C12.7699 2.60165 12.4321 2.20325 11.9575 2.00301C11.4878 1.78164 10.9414 1.74977 10.4363 1.85647C9.99393 1.95728 9.59415 2.19701 9.27474 2.51331C6.51192 5.25048 3.74877 7.98835 0.984569 10.7245C0.666196 11.0387 0.418149 11.4323 0.316644 11.8691C0.0893832 12.6552 0.374152 13.5365 0.956161 14.1033C2.90416 16.0332 4.85389 17.9611 6.80154 19.8925C7.23597 20.3321 7.84951 20.5885 8.47205 20.5805C10.066 20.5899 11.6582 20.5792 13.2511 20.5857C13.9675 20.6315 14.693 20.3772 15.2005 19.8686C16.9652 18.1254 18.7251 16.3759 20.4898 14.6316C20.7774 14.3426 21.0888 14.0728 21.323 13.7374C21.7523 13.1239 21.824 12.2976 21.5731 11.603C21.3771 11.0449 20.9059 10.6601 20.4992 10.2551ZM6.70316 13.3633C6.4028 13.717 5.87483 13.6234 5.46916 13.5607C5.11164 13.2774 4.78357 12.9476 4.49499 12.5963C4.32835 12.4012 4.54245 12.1989 4.67513 12.0614C6.49252 10.2686 8.30368 8.46816 10.1176 6.67329C10.3608 6.43771 10.5825 6.17616 10.8562 5.97522C11.0921 5.85778 11.2737 6.11068 11.4303 6.24475C11.7646 6.59707 12.1422 6.90956 12.4481 7.28648C12.6054 7.47355 12.4325 7.69007 12.2943 7.82414C10.4287 9.66856 8.56178 11.513 6.70316 13.3633ZM12.4224 17.6106C12.1325 17.9338 11.8293 18.2504 11.4898 18.5206C11.1774 18.5951 10.8444 18.5778 10.5281 18.5331C10.2247 18.3803 10.0189 18.0879 9.77014 17.8624C9.59242 17.6916 9.31562 17.4346 9.54322 17.1883C9.9288 16.7635 10.3407 16.3596 10.7672 15.974C10.9255 15.841 11.1628 15.9071 11.291 16.0506C11.6554 16.4001 12.0143 16.7549 12.366 17.1176C12.5032 17.2395 12.5797 17.4706 12.4224 17.6106ZM12.3137 12.773C11.2789 13.7963 10.2402 14.8186 9.21099 15.8493C8.92241 16.2006 8.41281 16.0894 8.01787 16.0568C7.63541 15.814 7.33921 15.454 7.03192 15.1256C6.82753 14.934 7.01945 14.6828 7.17638 14.5384C8.21326 13.5161 9.24841 12.4934 10.279 11.4655C10.4665 11.2847 10.6366 11.0758 10.8642 10.9379C11.0925 10.8409 11.2595 11.0709 11.4102 11.2001C11.7549 11.5656 12.1474 11.8875 12.4616 12.2786C12.6005 12.4532 12.4398 12.6489 12.3137 12.773Z" fill="#84BF31"/>
<path d="M9.77021 19.4285C10.0189 19.6541 10.2247 19.9465 10.5282 20.0989C10.8445 20.1439 11.1774 20.1612 11.4899 20.0871C11.8294 19.8172 12.1325 19.5002 12.4225 19.1767C12.5798 19.0367 12.5032 18.806 12.3657 18.6844C12.2015 18.5146 12.0307 18.3522 11.8641 18.1859C11.7421 18.3012 11.6205 18.4169 11.4899 18.5209C11.1774 18.5954 10.8445 18.578 10.5282 18.5333C10.3602 18.4488 10.2223 18.3206 10.09 18.1852C9.90324 18.3716 9.72032 18.5611 9.54329 18.7547C9.31534 19.001 9.59248 19.2574 9.77021 19.4285Z" fill="#72AA11"/>
<path d="M0.984685 12.2914C3.74888 9.55493 6.51204 6.81706 9.27485 4.07954C9.59426 3.76359 9.9937 3.52351 10.4364 3.42305C10.9415 3.31565 11.4875 3.34752 11.9576 3.56924C12.4323 3.76913 12.77 4.16788 13.1286 4.51778C15.5841 6.95252 18.0421 9.38621 20.4993 11.821C20.906 12.2266 21.3768 12.6108 21.5736 13.1693C21.5785 13.1842 21.5816 13.1998 21.5871 13.2157C21.7666 12.6985 21.7583 12.1151 21.5736 11.603C21.3772 11.0453 20.906 10.6601 20.4993 10.2551C18.0417 7.82033 15.5841 5.38663 13.1286 2.95155C12.77 2.60165 12.4323 2.20325 11.9576 2.00301C11.4879 1.78164 10.9415 1.74977 10.4364 1.85647C9.99405 1.95728 9.59426 2.19701 9.27485 2.51331C6.51204 5.25048 3.74888 7.98835 0.984685 10.7245C0.666312 11.0387 0.418265 11.4323 0.31676 11.8691C0.188926 12.3129 0.228073 12.7851 0.387086 13.216C0.51111 12.8675 0.721049 12.5512 0.984685 12.2914Z" fill="#A1E03D"/>
<path d="M12.4626 13.8448C12.2821 13.6193 12.0756 13.4176 11.8667 13.217C10.9799 14.0925 10.0923 14.9676 9.21166 15.8492C8.92308 16.2005 8.41347 16.0893 8.01854 16.0568C7.86091 15.9559 7.71922 15.833 7.58342 15.7031C7.44727 15.8371 7.31285 15.9708 7.17705 16.1049C7.02012 16.249 6.82819 16.5005 7.03259 16.6925C7.33987 17.0198 7.63608 17.3798 8.01854 17.623C8.41382 17.6562 8.92308 17.7671 9.21166 17.4155C10.2409 16.3848 11.2795 15.3625 12.3143 14.3391C12.4404 14.2151 12.6012 14.019 12.4626 13.8448Z" fill="#72AA11"/>
<path d="M4.49546 14.1621C4.78439 14.5144 5.11211 14.8432 5.46963 15.1266C5.87531 15.1893 6.40293 15.2825 6.70363 14.9291C8.56225 13.0785 10.4292 11.2344 12.2947 9.39033C12.433 9.25626 12.6058 9.04008 12.4486 8.85335C12.2715 8.63579 12.0716 8.43971 11.8697 8.24536C10.1458 9.94912 8.42091 11.6529 6.70363 13.3629C6.40327 13.7166 5.87531 13.6231 5.46963 13.5604C5.33591 13.4543 5.21154 13.3366 5.08648 13.2191C4.94964 13.3553 4.81245 13.4911 4.67526 13.6272C4.54292 13.7647 4.32883 13.9678 4.49546 14.1621Z" fill="#72AA11"/>
</g>
<defs>
<clipPath id="clip0_159_230">
<rect width="21.479" height="21.479" fill="white" transform="translate(0.238281 0.454834)"/>
</clipPath>
</defs>
</svg>
