<svg width="57" height="53" viewBox="0 0 57 53" fill="none" xmlns="http://www.w3.org/2000/svg">
<path d="M47.8399 46.0554L38.2875 46.7386L38.2229 46.7434C35.0992 47.008 32.0298 47.7203 29.1088 48.8585L22.9614 51.1768C21.6587 51.668 20.2655 51.873 18.8766 51.7776C17.4877 51.6823 16.1355 51.289 14.9122 50.6245C13.6888 49.9599 12.6229 49.0397 11.787 47.9264C10.951 46.8131 10.3647 45.5328 10.0677 44.1726L6.69698 28.7342C6.42541 27.4903 6.40151 26.205 6.62666 24.9518C6.8518 23.6986 7.32157 22.5021 8.00916 21.4304C8.69674 20.3588 9.58866 19.4331 10.634 18.7061C11.6793 17.9792 12.8576 17.4653 14.1016 17.1937L41.646 11.1807C42.8899 10.9092 44.1752 10.8853 45.4284 11.1104C46.6816 11.3356 47.8781 11.8053 48.9498 12.4929C50.0214 13.1805 50.9471 14.0724 51.674 15.1178C52.4009 16.1631 52.9148 17.3414 53.1864 18.5854L56.6207 34.3166C56.9172 35.675 56.9181 37.0813 56.6233 38.4402C56.3285 39.799 55.7449 41.0785 54.912 42.1919C54.0792 43.3053 53.0166 44.2266 51.7964 44.8932C50.5761 45.5598 49.2268 45.9561 47.8399 46.0554Z" stroke="#F5E9D7" stroke-width="1.29167" stroke-linecap="round" stroke-linejoin="round"/>
<path d="M25.413 24.8599L28.4045 38.5644L40.7954 29.5318L25.413 24.8599Z" stroke="#F5E9D7" stroke-width="1.29167" stroke-linecap="round" stroke-linejoin="round"/>
</svg>
